<?xml version="1.0" encoding="UTF-8"?>
<svg version="1.1" xmlns="http://www.w3.org/2000/svg" width="960" height="960">
<path d="M0 0 C316.8 0 633.6 0 960 0 C960 316.8 960 633.6 960 960 C643.2 960 326.4 960 0 960 C0 643.2 0 326.4 0 0 Z " fill="#E7161A" transform="translate(0,0)"/>
<path d="M0 0 C0.98403809 -0.02215576 1.96807617 -0.04431152 2.98193359 -0.06713867 C8.74937481 -0.04977583 12.42025918 0.38838254 16.875 4.4375 C19.99122893 8.82895806 19.38005576 14.28746169 18.875 19.4375 C17.5625 22.4375 17.5625 22.4375 15.875 24.4375 C15.44960938 24.95183594 15.02421875 25.46617187 14.5859375 25.99609375 C12.34521479 27.8838259 10.70566414 28.08087777 7.8125 28.5 C6.74257813 28.65855469 5.67265625 28.81710938 4.5703125 28.98046875 C1.20380109 29.39683433 -2.16135614 29.74876441 -5.53662109 30.08227539 C-32.62463357 32.82245945 -57.42142537 42.40871605 -78.125 60.4375 C-78.95515625 61.15808594 -79.7853125 61.87867188 -80.640625 62.62109375 C-83.16922545 64.85882759 -85.65101599 67.13965725 -88.125 69.4375 C-88.81851563 70.05367188 -89.51203125 70.66984375 -90.2265625 71.3046875 C-119.52680682 98.62963445 -136.89321314 139.9272881 -153.06054688 175.72265625 C-190.38107528 258.33725696 -190.38107528 258.33725696 -227.125 273.4375 C-227.92292969 273.78039062 -228.72085938 274.12328125 -229.54296875 274.4765625 C-242.43683974 279.22576799 -259.18922103 277.35143332 -271.49609375 271.9609375 C-287.81057647 263.69996244 -295.90948565 252.07466485 -301.9609375 235.234375 C-308.04939313 215.37538549 -303.68694903 193.1269803 -299.125 173.4375 C-298.94388672 172.62893555 -298.76277344 171.82037109 -298.57617188 170.98730469 C-296.96214508 163.81279734 -294.96963689 156.82546197 -292.5625 149.875 C-287.72326546 135.64107865 -283.29806563 118.84991699 -290.0546875 104.5859375 C-290.58449219 103.52246094 -290.58449219 103.52246094 -291.125 102.4375 C-291.60646484 101.10332031 -291.60646484 101.10332031 -292.09765625 99.7421875 C-292.94049311 97.18785971 -292.94049311 97.18785971 -295.6875 96.1875 C-296.8940625 95.81625 -296.8940625 95.81625 -298.125 95.4375 C-298.455 95.1075 -298.785 94.7775 -299.125 94.4375 C-307.0334302 93.67216805 -312.20213409 95.73480073 -319.125 99.4375 C-319.93839844 99.8603125 -320.75179688 100.283125 -321.58984375 100.71875 C-347.53013253 115.18140696 -369.41755906 146.40483697 -377.43066406 174.59985352 C-377.85999626 176.23075183 -378.28497334 177.86280156 -378.70605469 179.49584961 C-381.08995385 188.68456052 -384.06128907 197.64455731 -387.125 206.625 C-387.40083923 207.43366516 -387.67667847 208.24233032 -387.96087646 209.07550049 C-392.16484025 221.32958181 -396.74672704 233.39954661 -401.6875 245.375 C-402.13041382 246.45181534 -402.13041382 246.45181534 -402.58227539 247.55038452 C-410.11780199 265.7887302 -410.11780199 265.7887302 -413.875 268.875 C-419.99708937 270.40552234 -424.90240251 269.8163734 -430.359375 266.765625 C-433.53378709 264.3777929 -434.61972121 262.13797702 -436.125 258.4375 C-436.92502296 251.35158236 -434.45056002 244.95876935 -432.375 238.25 C-432.02695312 237.09435547 -431.67890625 235.93871094 -431.3203125 234.74804688 C-427.30585648 221.50777618 -422.82472849 208.56997206 -417.60986328 195.76074219 C-410.41626371 178.02717907 -404.62236694 161.22421867 -401.51049805 142.30664062 C-401.125 140.4375 -401.125 140.4375 -400.125 138.4375 C-398.98381573 131.12698779 -398.8821537 123.6957927 -398.8125 116.3125 C-398.76899414 114.76369141 -398.76899414 114.76369141 -398.72460938 113.18359375 C-398.66879305 106.44269962 -399.52661091 102.17636731 -403.125 96.4375 C-406.5546442 93.38892737 -409.43756101 93.13170422 -413.96240234 93.20068359 C-417.62625263 93.60189547 -420.57885099 95.04980073 -423.8125 96.75 C-424.50093994 97.10537842 -425.18937988 97.46075684 -425.89868164 97.8269043 C-437.48137372 104.07442486 -446.32572589 112.91002131 -454.125 123.4375 C-454.71539062 124.22511719 -455.30578125 125.01273437 -455.9140625 125.82421875 C-469.41490562 144.47264361 -479.4347583 165.43375844 -488.9375 186.3125 C-489.25197083 187.0018866 -489.56644165 187.69127319 -489.89044189 188.40155029 C-496.45233102 202.82395969 -502.19437392 217.46310847 -507.5625 232.375 C-513.7381813 249.35350855 -513.7381813 249.35350855 -517 257.0625 C-517.73863281 258.81433594 -517.73863281 258.81433594 -518.4921875 260.6015625 C-520.8960371 264.7766697 -523.57513694 266.92087898 -528.125 268.4375 C-534.26809218 269.28565868 -538.3300056 268.30331452 -543.49609375 264.921875 C-546.6456523 262.05177369 -547.09433558 260.02513126 -547.31787109 255.74145508 C-547.27052925 251.56137441 -546.28314381 248.17835109 -544.81640625 244.24609375 C-544.57434448 243.58724182 -544.33228271 242.92838989 -544.08288574 242.24957275 C-543.29669098 240.11992567 -542.49225265 237.99769518 -541.6875 235.875 C-541.13688461 234.39142297 -540.58733363 232.90745048 -540.03881836 231.4230957 C-537.23848335 223.87884166 -534.32719295 216.38595004 -531.31494141 208.92358398 C-527.20240077 198.71525714 -523.96006638 188.64198669 -521.66015625 177.875 C-521.13333344 175.47545669 -520.54071865 173.10008374 -519.9375 170.71875 C-517.25796967 159.46200112 -516.70520205 148.39462073 -516.625 136.875 C-516.61455658 136.14843201 -516.60411316 135.42186401 -516.59335327 134.67327881 C-516.45577933 122.43560117 -517.82653257 111.0008643 -526.08984375 101.3515625 C-531.37680673 96.37917889 -536.89244649 94.17210104 -544.125 93.875 C-554.35782192 94.37288378 -561.57381556 98.82311664 -569.125 105.4375 C-569.70765625 105.91445313 -570.2903125 106.39140625 -570.890625 106.8828125 C-589.99411063 123.93311977 -600.79436499 155.6431472 -612.04614258 178.2961731 C-618.0282582 190.33415278 -624.13838934 202.26718445 -630.7421875 213.97949219 C-632.19649264 216.5645812 -633.62965268 219.16077673 -635.0625 221.7578125 C-647.24531741 243.66303493 -661.46816263 263.9260075 -678.80273438 282.05224609 C-679.94642175 283.25041489 -681.07611357 284.46191367 -682.203125 285.67578125 C-708.17939741 312.90720968 -746.09529933 326.97743571 -783.1875 327.875 C-783.98526855 327.90948242 -784.78303711 327.94396484 -785.60498047 327.97949219 C-789.66432165 328.00872701 -792.31506387 327.72063112 -795.55859375 325.16015625 C-799.93113842 320.52139881 -800.6426827 317.24925784 -800.50390625 310.9765625 C-799.90227475 306.94501122 -798.17573852 304.11221726 -795.125 301.4375 C-790.59977239 298.682168 -787.13382979 298.06734765 -781.875 297.9375 C-752.83615268 296.61801257 -727.44458923 285.88344151 -705.125 267.4375 C-704.35414063 266.8084375 -703.58328125 266.179375 -702.7890625 265.53125 C-698.06884279 261.55252074 -694.08497655 257.15995651 -690.125 252.4375 C-689.40957031 251.633125 -688.69414063 250.82875 -687.95703125 250 C-664.77505064 223.3766487 -649.24754995 190.48366787 -635.125 158.4375 C-601.75913967 82.76586828 -601.75913967 82.76586828 -565.23828125 68.2109375 C-564.54089844 67.95570313 -563.84351563 67.70046875 -563.125 67.4375 C-562.39667969 67.14101563 -561.66835938 66.84453125 -560.91796875 66.5390625 C-546.75490088 61.41874941 -531.47386149 64.38699868 -518.125 70.375 C-503.31000215 77.8700532 -494.38211526 91.31782295 -489.125 106.75 C-487.83694115 111.63149691 -487.83689979 116.4224223 -488.125 121.4375 C-487.465 121.4375 -486.805 121.4375 -486.125 121.4375 C-485.88910156 120.74914062 -485.65320313 120.06078125 -485.41015625 119.3515625 C-483.86613493 115.85052934 -481.80606656 112.88704861 -479.5625 109.8125 C-479.11704834 109.19785889 -478.67159668 108.58321777 -478.21264648 107.94995117 C-463.39312659 87.67461937 -445.12794091 67.6897393 -419.125 63.4375 C-406.86123706 62.1758229 -395.07411087 62.82711467 -384.6953125 70.15234375 C-373.8020338 79.26997812 -370.36897952 90.18549855 -367.125 103.4375 C-365.96097656 102.20386719 -365.96097656 102.20386719 -364.7734375 100.9453125 C-347.76147458 83.22940629 -324.33744937 66.90329615 -299.046875 65.234375 C-287.79295811 65.06806096 -278.87322558 67.05197879 -270.125 74.4375 C-259.25548354 85.47994058 -256.71899139 101.18978884 -256.75708008 116.00366211 C-256.93537284 125.77934417 -258.82167458 134.97052003 -261.125 144.4375 C-261.32818848 145.29827148 -261.53137695 146.15904297 -261.74072266 147.04589844 C-263.6464807 155.10837601 -265.64160446 163.11271578 -268.1875 171 C-272.24620308 184.08724667 -274.48065353 196.37062744 -274.5 210.125 C-274.50241699 211.77278442 -274.50241699 211.77278442 -274.50488281 213.45385742 C-274.37366938 222.95735487 -273.23936196 232.93347237 -266.484375 240.203125 C-260.9654706 245.14614372 -256.35224235 246.93313055 -248.92578125 246.74609375 C-234.95969262 245.20729179 -221.94787024 237.12179912 -213.125 226.4375 C-193.20664137 200.42987832 -180.22633324 169.12667612 -167.44271851 139.22268677 C-153.5699867 106.81604741 -137.62225162 77.026339 -113.125 51.4375 C-112.64949707 50.93476563 -112.17399414 50.43203125 -111.68408203 49.9140625 C-100.76912111 38.41925568 -88.88295803 29.35632468 -75.125 21.4375 C-74.27131836 20.93887451 -74.27131836 20.93887451 -73.40039062 20.43017578 C-59.26791927 12.23851855 -44.16855359 6.55218257 -28.125 3.4375 C-26.95582031 3.16035156 -25.78664063 2.88320312 -24.58203125 2.59765625 C-16.36774293 0.78063223 -8.41595811 0.10289269 0 0 Z " fill="#FEFCFC" transform="translate(872.125,213.5625)"/>
<path d="M0 0 C9.27953721 6.69110284 16.70154059 15.93657142 19.55078125 27.171875 C21.78749498 41.25344663 20.19885553 54.18558251 11.6875 65.9375 C5.60165664 73.12986033 -2.67667998 79.00703153 -12 81 C-24.14593008 81.9863574 -36.35969858 82.61946145 -47 76 C-47.73992187 75.56558594 -48.47984375 75.13117188 -49.2421875 74.68359375 C-57.8025383 69.0143803 -63.09696201 59.67679329 -66 50 C-68.63243467 36.80249194 -67.27281275 24.00389983 -59.75 12.625 C-46.05168845 -5.36681219 -20.05679644 -11.86809058 0 0 Z " fill="#FEFAFA" transform="translate(399,702)"/>
<path d="M0 0 C2.38457171 2.47782312 4.27951066 5.02687368 6 8 C6.67095703 7.41992188 6.67095703 7.41992188 7.35546875 6.828125 C9.23143163 5.21215698 11.11480162 3.60517938 13 2 C13.845625 1.278125 14.69125 0.55625 15.5625 -0.1875 C23.06981263 -5.76986067 29.908167 -5.82653027 39 -5 C45.70921908 -3.54147411 49.76486628 0.29272207 54.2734375 5.29296875 C59.33588104 13.23023882 59.4555599 21.41765108 59.43359375 30.609375 C59.4388356 31.89434875 59.44407745 33.17932251 59.44947815 34.50323486 C59.45835545 37.20619631 59.45604455 39.90886136 59.44604492 42.61181641 C59.43450249 46.06749939 59.45487244 49.52216842 59.48396206 52.97771835 C59.50674084 56.29249107 59.49985902 59.60702593 59.49609375 62.921875 C59.50732773 64.15838806 59.51856171 65.39490112 59.53013611 66.66888428 C59.51606468 68.39658051 59.51606468 68.39658051 59.50170898 70.15917969 C59.50154282 71.16905945 59.50137665 72.17893921 59.50120544 73.21942139 C58.8653496 76.74701109 57.46174525 78.44346942 55 81 C52.25551049 81.8630133 49.79323808 81.6366518 47 81 C44.56880377 79.12984906 43.35930827 77.71861655 42 75 C41.89583468 73.23951852 41.85403037 71.47519126 41.84228516 69.71166992 C41.83202301 68.60679733 41.82176086 67.50192474 41.81118774 66.36357117 C41.80388641 65.16464737 41.79658508 63.96572357 41.7890625 62.73046875 C41.76099366 60.20767581 41.73232919 57.68488943 41.703125 55.16210938 C41.66184459 51.17240676 41.62496994 47.18294645 41.59863281 43.19311523 C41.57105257 39.35113983 41.52517744 35.50972781 41.4765625 31.66796875 C41.47330963 30.47511765 41.47005676 29.28226654 41.46670532 28.05326843 C41.45013885 26.93893936 41.43357239 25.82461029 41.41650391 24.67651367 C41.40841705 23.69881516 41.4003302 22.72111664 41.39199829 21.71379089 C40.92949449 18.51189273 39.873422 16.61552808 38 14 C33.94887714 11.29101744 29.70750218 11.24247091 25 12 C18.46438266 14.77964745 13.77512653 19.44369924 11 26 C10.70905771 28.38666312 10.70905771 28.38666312 10.76049805 30.96459961 C10.75676682 31.94919662 10.75303558 32.93379364 10.74919128 33.94822693 C10.75332535 35.00558548 10.75745941 36.06294403 10.76171875 37.15234375 C10.74630262 39.39518837 10.72999926 41.63802703 10.71289062 43.88085938 C10.696418 47.41411469 10.68751885 50.94693394 10.69458008 54.48022461 C10.69719649 57.89226637 10.66910703 61.30297927 10.63671875 64.71484375 C10.64692551 65.77017807 10.65713226 66.82551239 10.66764832 67.91282654 C10.56968779 75.24999102 10.56968779 75.24999102 7.59350586 79.16821289 C3.62184235 81.97338952 1.76372098 81.61467368 -3 81 C-5.67431489 79.18836733 -5.95920359 78.12238923 -7 75 C-7.09610183 73.2372546 -7.13539563 71.47116187 -7.1418457 69.70581055 C-7.14888016 68.62426193 -7.15591461 67.54271332 -7.16316223 66.4283905 C-7.16732651 65.25963882 -7.17149078 64.09088715 -7.17578125 62.88671875 C-7.19897873 60.41730918 -7.22309604 57.9479081 -7.24804688 55.47851562 C-7.2831722 51.58107814 -7.31251221 47.68395352 -7.32592773 43.78637695 C-7.34140112 40.02777139 -7.38160881 36.27008227 -7.42578125 32.51171875 C-7.42387283 31.34903976 -7.42196442 30.18636078 -7.41999817 28.9884491 C-7.53765359 21.20461786 -8.45804232 17.54195768 -14 12 C-18.55833251 11.20190811 -23.0717472 11.11999201 -27.328125 13.0625 C-32.15114377 16.44965822 -35.59517681 20.6036795 -38 26 C-38.66893204 29.94371193 -38.62837272 33.80489388 -38.56640625 37.796875 C-38.57485817 39.46366302 -38.57485817 39.46366302 -38.58348083 41.16412354 C-38.59987163 44.69318457 -38.58442085 48.22098327 -38.5625 51.75 C-38.54591164 55.29317666 -38.53678405 58.83553406 -38.55223083 62.37872314 C-38.56152092 64.57790376 -38.55231364 66.77725785 -38.52259827 68.97625732 C-38.54917835 76.3629048 -38.54917835 76.3629048 -40.88842773 79.66870117 C-43.28802233 81.1815916 -44.67446689 81.56733824 -47.5 81.5625 C-48.2528125 81.58441406 -49.005625 81.60632813 -49.78125 81.62890625 C-53.14830091 80.6745133 -54.12110268 78.90287964 -56 76 C-56.39199725 73.3700888 -56.55845311 71.15926457 -56.53344727 68.53515625 C-56.54206284 67.80118622 -56.55067841 67.06721619 -56.55955505 66.31100464 C-56.58218429 63.89447364 -56.57548294 61.4791051 -56.56640625 59.0625 C-56.57164293 57.37768205 -56.57791957 55.69286704 -56.58518982 54.00805664 C-56.59558812 50.48081647 -56.59104052 46.95397987 -56.57641602 43.42675781 C-56.55922151 38.91040232 -56.5827336 34.39531826 -56.61790562 29.87910461 C-56.63988257 26.40115964 -56.63843764 22.92351884 -56.6301403 19.44552612 C-56.62932108 17.78057459 -56.63617908 16.11560066 -56.65091133 14.45071411 C-56.66836582 12.12129894 -56.65381156 9.7941677 -56.63110352 7.46484375 C-56.64279572 6.78001923 -56.65448792 6.0951947 -56.66653442 5.38961792 C-56.59078484 1.56367597 -56.05763156 0.07004896 -53.59165955 -2.92724609 C-51.04100225 -4.96720728 -50.12032551 -5.67007064 -46.9375 -5.5625 C-43 -5 -43 -5 -40.5 -3.3125 C-38.75366776 -0.62023779 -38.65017788 0.85160094 -39 4 C-38.34 4 -37.68 4 -37 4 C-37 3.34 -37 2.68 -37 2 C-25.08158836 -7.94552264 -12.76912371 -8.657647 0 0 Z " fill="#FEF9F9" transform="translate(235,702)"/>
<path d="M0 0 C0.74121094 -0.02191406 1.48242188 -0.04382813 2.24609375 -0.06640625 C5.90394707 0.92670401 7.24962639 2.56809587 9.5625 5.5625 C10.31079267 9.00226065 10.28393263 12.384449 10.26953125 15.89453125 C10.28465256 16.88627853 10.29977386 17.87802582 10.31535339 18.89982605 C10.35824202 22.05844845 10.36706975 25.21611539 10.375 28.375 C10.39814332 30.52020771 10.42350831 32.66539269 10.45117188 34.81054688 C10.51403526 40.06120697 10.54896044 45.31149352 10.5625 50.5625 C11.23796875 50.21316406 11.9134375 49.86382813 12.609375 49.50390625 C13.94742188 48.82134766 13.94742188 48.82134766 15.3125 48.125 C16.19421875 47.67253906 17.0759375 47.22007812 17.984375 46.75390625 C26.19414336 42.95999815 37.02494361 43.34746051 45.5 46.125 C53.1741495 49.37966162 58.47031265 54.14055527 61.87109375 61.765625 C63.30271742 65.48622889 63.70214864 68.37399413 63.73950195 72.34741211 C63.75875481 74.12957375 63.75875481 74.12957375 63.77839661 75.94773865 C63.78578354 77.23213333 63.79317047 78.51652802 63.80078125 79.83984375 C63.808853 81.15787491 63.81692474 82.47590607 63.82524109 83.83387756 C63.84025109 86.62386954 63.8500983 89.41383618 63.85766602 92.20385742 C63.86874507 95.77629339 63.90316898 99.34810897 63.94283772 102.92032528 C63.97526747 106.33097361 63.97977846 109.74155312 63.98828125 113.15234375 C64.00578934 114.4347142 64.02329742 115.71708466 64.04133606 117.03831482 C64.03841049 118.22957474 64.03548492 119.42083466 64.0324707 120.64819336 C64.03833694 121.69615585 64.04420319 122.74411835 64.05024719 123.82383728 C63.43886747 127.25668707 62.23710357 128.40194442 59.5625 130.5625 C56.70925563 131.98912219 54.72795451 131.87283868 51.5625 131.5625 C48.89648438 130.27001953 48.89648438 130.27001953 46.5625 127.5625 C45.83765295 123.69023243 45.96165696 119.85772855 46.03125 115.9296875 C46.02798706 114.78267365 46.02472412 113.63565979 46.0213623 112.45388794 C46.008204 107.54929679 46.05276486 102.64561481 46.09228516 97.74121094 C46.11286777 94.15792165 46.10389278 90.5755011 46.09375 86.9921875 C46.11336792 85.89703827 46.13298584 84.80188904 46.15319824 83.67355347 C46.128761 76.36997794 44.85614 70.60011366 40.5625 64.5625 C35.56097449 61.29227178 30.39637548 60.67736027 24.5625 61.5625 C18.28506159 63.48697017 14.31512274 67.29064936 10.5625 72.5625 C9.3206119 75.0462762 9.43794673 76.70544862 9.43652344 79.48364258 C9.43271667 80.50843216 9.42890991 81.53322174 9.42498779 82.58906555 C9.42396057 83.70049423 9.42293335 84.81192291 9.421875 85.95703125 C9.40354803 88.29753578 9.38397783 90.63803085 9.36328125 92.97851562 C9.33429158 96.67862899 9.31249959 100.37813477 9.31201172 104.07836914 C9.30868129 107.64264191 9.27415178 111.20550307 9.234375 114.76953125 C9.2414447 115.87488724 9.2485144 116.98024323 9.25579834 118.11909485 C9.13429362 125.7744511 9.13429362 125.7744511 6.23925781 129.7644043 C2.69916421 132.14244054 0.74995838 132.23548438 -3.4375 131.5625 C-6.11680603 130.25744629 -6.11680603 130.25744629 -8.4375 127.5625 C-9.20557692 123.67925631 -9.10946318 119.82793495 -9.06860352 115.88085938 C-9.07575882 114.68701126 -9.08291412 113.49316315 -9.09028625 112.26313782 C-9.10429713 108.9921891 -9.09586503 105.72226398 -9.07619596 102.45137215 C-9.05980524 99.02726423 -9.06862291 95.60320778 -9.07371521 92.17907715 C-9.07823575 86.42898541 -9.06236926 80.67921901 -9.03442383 74.92919922 C-9.0023717 68.28297804 -9.00238752 61.63734361 -9.0196386 54.99108076 C-9.03550692 48.5955263 -9.0287683 42.20018679 -9.01170158 35.80464172 C-9.00483205 33.08378878 -9.0058624 30.3631082 -9.01324654 27.64225769 C-9.01868411 23.84251304 -8.99836782 20.0437711 -8.97094727 16.24414062 C-8.97747314 15.11466507 -8.98399902 13.98518951 -8.99072266 12.82148743 C-8.9779982 11.78682846 -8.96527374 10.75216949 -8.9521637 9.68615723 C-8.94935678 8.78799538 -8.94654985 7.88983353 -8.94365788 6.96445465 C-7.93847317 2.19438549 -4.72102832 -0.00818202 0 0 Z " fill="#FEFBFB" transform="translate(724.4375,651.4375)"/>
<path d="M0 0 C3.66186465 2.65241527 6.48595319 5.22892979 9 9 C9.50835292 12.8973724 9.32962183 14.50556726 7.125 17.8125 C4.5221353 20.49191954 3.57243804 20.90840991 -0.125 21.5 C-5.02315794 20.86797962 -6.62324101 18.98201562 -10.11328125 15.69140625 C-14.94263868 11.3619823 -20.84720009 11.55763239 -27.03515625 11.6953125 C-34.54944315 12.46753171 -38.77805519 16.31479479 -43.5546875 21.90234375 C-48.38376508 28.91103202 -47.97446575 37.8101742 -47 46 C-44.81956507 53.57069466 -40.78012511 57.85429706 -34.33203125 62.09765625 C-28.14577085 64.4913349 -18.58818316 64.26395972 -12.31640625 62.0546875 C-10.34887428 60.8350478 -8.69399248 59.57481713 -7 58 C-1.74880055 53.11823167 -1.74880055 53.11823167 2.5625 52.4375 C6.52374737 53.08570411 8.18799374 54.18799374 11 57 C12.50889469 60.01778937 12.50026276 61.62322637 12 65 C6.43017558 73.6773789 -2.16846486 78.599211 -12 81 C-25.45872889 82.59926254 -38.62181366 82.24210484 -49.7578125 73.9453125 C-60.18818777 65.15703713 -64.90658301 55.06164521 -66.38671875 41.44140625 C-66.84622856 27.22829237 -62.27834987 15.59568527 -52.6875 5.25 C-38.23984232 -8.40730441 -16.94233465 -9.38204553 0 0 Z " fill="#FEFAFA" transform="translate(667,702)"/>
<path d="M0 0 C0.99 0 1.98 0 3 0 C3 316.8 3 633.6 3 960 C2.01 960 1.02 960 0 960 C0 643.2 0 326.4 0 0 Z " fill="#FCEDED" transform="translate(0,0)"/>
<path d="M0 0 C6.29063555 3.69232956 12.27091682 10.12325552 14.3515625 17.16015625 C14.67846963 20.10232044 14.72167676 23.01434165 14.7265625 25.97265625 C14.75105469 26.74158203 14.77554688 27.51050781 14.80078125 28.30273438 C14.83533311 35.12672641 12.7511953 39.93207879 8.7109375 45.3671875 C2.4105417 51.65229108 -2.76725674 53.29435018 -11.6484375 53.59765625 C-18.83869792 53.40581366 -23.31550105 52.27044715 -28.578125 47.359375 C-35.85047904 39.5891212 -37.25493276 33.43847154 -36.984375 22.88671875 C-36.15776371 13.71710051 -32.87190139 8.60716032 -25.8671875 2.75390625 C-18.79083468 -2.32910775 -8.29548017 -2.63057262 0 0 Z " fill="#E7161A" transform="translate(386.6484375,713.83984375)"/>
<path d="M0 0 C1.98828125 0.64453125 1.98828125 0.64453125 3.98828125 2.39453125 C5.0636189 4.81404095 5.62453624 7.02556716 5.98828125 9.64453125 C6.58962891 9.06445312 6.58962891 9.06445312 7.203125 8.47265625 C12.91344191 3.24143622 18.8360437 -0.46166954 26.73828125 -0.85546875 C29.79165436 -0.68435152 31.21726994 -0.24331102 34.05078125 1.14453125 C36.27228403 4.01098645 36.72938174 6.05856624 36.453125 9.68359375 C35.59110342 13.32002094 34.03844228 14.55128348 30.98828125 16.64453125 C28.2728123 17.50584406 25.54266406 18.17660121 22.7734375 18.84375 C15.81212389 20.84524971 11.19891365 24.90275979 6.98828125 30.64453125 C5.80333815 33.01441745 5.85771521 34.46324955 5.84643555 37.10668945 C5.83588387 38.49371819 5.83588387 38.49371819 5.82511902 39.9087677 C5.82095474 40.91082748 5.81679047 41.91288727 5.8125 42.9453125 C5.78930077 45.05795266 5.76518339 47.1705829 5.74023438 49.28320312 C5.70511434 52.62107974 5.67577497 55.95859195 5.66235352 59.29663086 C5.6468807 62.51330941 5.60667207 65.72891679 5.5625 68.9453125 C5.56440842 69.94129959 5.56631683 70.93728668 5.56828308 71.9634552 C5.49054085 76.36722604 5.42394766 78.93634372 3.07739258 82.75073242 C0.36409476 85.2103621 -0.62741093 85.6010247 -4.32421875 86.01953125 C-8.01171875 85.64453125 -8.01171875 85.64453125 -10.70075989 83.58764648 C-13.48291195 80.04444447 -13.72858053 77.50643983 -13.67456055 73.1796875 C-13.68492844 72.44571747 -13.69529633 71.71174744 -13.70597839 70.95553589 C-13.73299698 68.53879253 -13.72339992 66.12387039 -13.7109375 63.70703125 C-13.71684815 62.02221166 -13.72409559 60.33739628 -13.73262024 58.65258789 C-13.74449149 55.12526531 -13.73780786 51.59857411 -13.71850586 48.07128906 C-13.69561266 43.55471603 -13.72240576 39.04002346 -13.76356792 34.52363586 C-13.78916265 31.04564671 -13.78656183 27.56810659 -13.77567482 24.09005737 C-13.77418957 22.42510266 -13.78186161 20.76011329 -13.7989254 19.09524536 C-13.81892964 16.76546693 -13.80048966 14.43900151 -13.7722168 12.109375 C-13.79279144 11.08213821 -13.79279144 11.08213821 -13.81378174 10.03414917 C-13.74756033 7.29896566 -13.49371455 5.22187957 -11.71138954 3.08695984 C-7.53971259 -0.53312783 -5.20681448 -0.93635151 0 0 Z " fill="#FEF8F7" transform="translate(471.01171875,697.35546875)"/>
<path d="M0 0 C2.31279611 1.15639806 4.17409828 2.17409828 6 4 C6.12151755 6.37651982 6.17857414 8.7245297 6.19287109 11.10253906 C6.20104858 11.84567856 6.20922607 12.58881805 6.21765137 13.35447693 C6.24255405 15.82485132 6.25903544 18.29516798 6.2734375 20.765625 C6.27876118 21.60797447 6.28408485 22.45032394 6.28956985 23.31819916 C6.31632515 27.77836702 6.33569065 32.23850668 6.35009766 36.69873047 C6.36673357 41.3069813 6.41149506 45.91451526 6.4624691 50.52249527 C6.49612787 54.06385113 6.50767368 57.60503679 6.51332474 61.14653778 C6.52004322 62.84502376 6.53528091 64.5434983 6.55921555 66.24182892 C6.59083678 68.62177284 6.59090919 70.99978397 6.58349609 73.37988281 C6.59990143 74.08034225 6.61630676 74.7808017 6.63320923 75.50248718 C6.58405748 79.36277409 6.07985626 80.90193814 3.60830688 83.93695068 C0.88628145 86.08994608 -0.16242605 86.66302393 -3.5625 86.5625 C-4.30628906 86.56378906 -5.05007813 86.56507813 -5.81640625 86.56640625 C-8.93084021 85.75854771 -10.024575 84.53743264 -12 82 C-12.40004107 79.34534696 -12.55787979 77.10252282 -12.53344727 74.44921875 C-12.54206284 73.69428131 -12.55067841 72.93934387 -12.55955505 72.16152954 C-12.5822301 69.66983612 -12.57547435 67.1792659 -12.56640625 64.6875 C-12.57164093 62.95401678 -12.57791684 61.22053641 -12.58518982 59.48706055 C-12.59559662 55.85549508 -12.59102833 52.22432139 -12.57641602 48.59277344 C-12.55922139 43.93842126 -12.58272951 39.28530277 -12.61790562 34.63108826 C-12.63986271 31.0519594 -12.63844242 27.47312657 -12.6301403 23.89395142 C-12.62931997 22.17793423 -12.63619914 20.46189548 -12.65091133 18.74594116 C-12.66832863 16.34678212 -12.65384192 13.94985052 -12.63110352 11.55078125 C-12.64279572 10.84208893 -12.65448792 10.13339661 -12.66653442 9.40322876 C-12.59568402 5.73011596 -12.24517138 4.25825942 -9.67930603 1.55541992 C-6.16654779 -0.48384475 -4.00647623 -0.50080953 0 0 Z " fill="#FEFDFC" transform="translate(555,697)"/>
<path d="M0 0 C2.70280789 1.95815673 4.45068169 4.04807912 6 7 C6.8141245 12.15612183 5.93650044 15.69313269 3 20 C-0.86450377 22.69616542 -4.3950823 23.594997 -9.03515625 23.42578125 C-12.66008099 22.64026078 -14.46795077 20.65556382 -17 18 C-18.35333858 13.93998425 -18.53714786 10.24496019 -18 6 C-16.24270808 2.94101036 -14.77339977 1.486137 -11.8125 -0.375 C-7.65035095 -1.29992201 -4.0785687 -1.33805675 0 0 Z " fill="#FEFAF9" transform="translate(558,652)"/>
<path d="M0 0 C0.99 0.33 1.98 0.66 3 1 C0.69 3.31 -1.62 5.62 -4 8 C-4.99 7.67 -5.98 7.34 -7 7 C-4.69 4.69 -2.38 2.38 0 0 Z " fill="#E82928" transform="translate(533,326)"/>
<path d="M0 0 C0.33 0 0.66 0 1 0 C1.07654536 4.51617599 1.10228696 8.59085217 0 13 C-0.33 13 -0.66 13 -1 13 C-2.0070238 7.96488101 -1.97387813 4.76052962 0 0 Z " fill="#EE6360" transform="translate(355,360)"/>
</svg>
